<svg xmlns="http://www.w3.org/2000/svg" enable-background="new 0 0 28 28" viewBox="0 0 28 28" id="trello"><path fill="#ffe577" d="m1.357 21.219-.501-14.083c0-2.958 2.18-5.357 4.869-5.357h11.799c2.689 0 6.371 2.398 6.371 5.357l.751 13.533c0 2.958-3.181 5.357-5.87 5.357l-12.55.551c-2.69-.001-4.869-2.399-4.869-5.358z"></path><path fill="#fff" d="m12.296 8.29.986 9.848c.173 2.072-.397 3.81-1.273 3.883l-3.844.321c-.876.073-2.216-1.506-2.389-3.578l-1.035-9.455c-.173-2.072.723-3.837 1.599-3.91l4.057-.727c.876-.074 1.726 1.546 1.899 3.618z"></path><path fill="#ff7c66" d="m23.614 7.294-.114 6.336c-.057 1.329-.793 2.377-1.643 2.341l-3.731-.161c-.85-.037-1.968-1.164-1.911-2.494l.024-6.091c.057-1.329 1.11-2.364 1.96-2.327l3.98-.077c.849.037 1.492 1.144 1.435 2.473z"></path><path d="m22.625 26h-17.25c-1.861 0-3.375-1.514-3.375-3.375v-17.25c0-1.861 1.514-3.375 3.375-3.375h17.25c1.861 0 3.375 1.514 3.375 3.375v17.25c0 1.861-1.514 3.375-3.375 3.375zm-17.25-23c-1.31 0-2.375 1.065-2.375 2.375v17.25c0 1.31 1.065 2.375 2.375 2.375h17.25c1.31 0 2.375-1.065 2.375-2.375v-17.25c0-1.31-1.065-2.375-2.375-2.375zm5.75 18.803h-4.255c-1.036 0-1.88-.844-1.88-1.88v-13.053c0-1.037.844-1.88 1.88-1.88h4.255c1.036 0 1.88.843 1.88 1.88v13.052c0 1.037-.844 1.881-1.88 1.881zm-4.255-15.813c-.485 0-.88.395-.88.88v13.052c0 .485.395.88.88.88h4.255c.485 0 .88-.395.88-.88v-13.052c0-.485-.395-.88-.88-.88zm14.26 10.063h-4.255c-1.036 0-1.88-.844-1.88-1.88v-7.303c0-1.037.844-1.88 1.88-1.88h4.255c1.036 0 1.88.843 1.88 1.88v7.302c0 1.037-.844 1.881-1.88 1.881zm-4.255-10.063c-.485 0-.88.395-.88.88v7.302c0 .485.395.88.88.88h4.255c.485 0 .88-.395.88-.88v-7.302c0-.485-.395-.88-.88-.88z"></path></svg>